<svg width="1024" height="753" viewBox="0 0 1024 753" fill="none" xmlns="http://www.w3.org/2000/svg">
<g clip-path="url(#clip0_122_130)">
<rect width="1024" height="753" fill="#121214"/>
<g opacity="0.2" filter="url(#filter0_f_122_130)">
<ellipse cx="480.5" cy="41" rx="670.5" ry="350" fill="#B3A659"/>
</g>
<path d="M1.0349 277C2.53022 277 3.66219 277.63 4.43081 278.891C5.21341 280.138 5.60471 281.953 5.60471 284.336C5.60471 286.719 5.21341 288.541 4.43081 289.802C3.66219 291.063 2.53022 291.693 1.0349 291.693C-0.446442 291.693 -1.57841 291.063 -2.36101 289.802C-3.1436 288.541 -3.5349 286.719 -3.5349 284.336C-3.5349 281.967 -3.1436 280.152 -2.36101 278.891C-1.57841 277.63 -0.446442 277 1.0349 277ZM-2.04657 284.336C-2.04657 286.026 -1.89285 287.35 -1.5854 288.306L3.06826 279.099C2.57913 278.448 1.90135 278.122 1.0349 278.122C0.0706311 278.122 -0.684015 278.635 -1.22904 279.66C-1.77406 280.672 -2.04657 282.23 -2.04657 284.336ZM1.0349 290.55C2.01315 290.55 2.77478 290.044 3.31981 289.033C3.86483 288.008 4.13734 286.442 4.13734 284.336C4.13734 282.549 3.96265 281.163 3.61328 280.18L-1.04037 289.469C-0.537276 290.19 0.154481 290.55 1.0349 290.55Z" fill="url(#paint0_linear_122_130)" fill-opacity="0.6"/>
<path d="M2.29265 314.135H5.37412V315.236H-2.61256V314.135H0.951054V302.455L-2.44486 304.471L-3.0318 303.536L1.16068 300.959H2.29265V314.135Z" fill="url(#paint1_linear_122_130)" fill-opacity="0.6"/>
<path d="M1.0349 324.502C2.53022 324.502 3.66219 325.133 4.43081 326.393C5.21341 327.64 5.60471 329.455 5.60471 331.838C5.60471 334.221 5.21341 336.043 4.43081 337.304C3.66219 338.565 2.53022 339.195 1.0349 339.195C-0.446442 339.195 -1.57841 338.565 -2.36101 337.304C-3.1436 336.043 -3.5349 334.221 -3.5349 331.838C-3.5349 329.469 -3.1436 327.654 -2.36101 326.393C-1.57841 325.133 -0.446442 324.502 1.0349 324.502ZM-2.04657 331.838C-2.04657 333.529 -1.89285 334.852 -1.5854 335.808L3.06826 326.601C2.57913 325.95 1.90135 325.624 1.0349 325.624C0.0706311 325.624 -0.684015 326.137 -1.22904 327.162C-1.77406 328.174 -2.04657 329.732 -2.04657 331.838ZM1.0349 338.052C2.01315 338.052 2.77478 337.546 3.31981 336.535C3.86483 335.51 4.13734 333.944 4.13734 331.838C4.13734 330.051 3.96265 328.665 3.61328 327.682L-1.04037 336.971C-0.537276 337.692 0.154481 338.052 1.0349 338.052Z" fill="url(#paint2_linear_122_130)" fill-opacity="0.6"/>
<path d="M2.29265 361.637H5.37412V362.738H-2.61256V361.637H0.951054V349.957L-2.44486 351.973L-3.0318 351.038L1.16068 348.461H2.29265V361.637Z" fill="url(#paint3_linear_122_130)" fill-opacity="0.6"/>
<path d="M2.29265 385.388H5.37412V386.489H-2.61256V385.388H0.951054V373.708L-2.44486 375.724L-3.0318 374.789L1.16068 372.212H2.29265V385.388Z" fill="url(#paint4_linear_122_130)" fill-opacity="0.6"/>
<path d="M1.0349 395.755C2.53022 395.755 3.66219 396.386 4.43081 397.646C5.21341 398.893 5.60471 400.708 5.60471 403.091C5.60471 405.474 5.21341 407.296 4.43081 408.557C3.66219 409.818 2.53022 410.448 1.0349 410.448C-0.446442 410.448 -1.57841 409.818 -2.36101 408.557C-3.1436 407.296 -3.5349 405.474 -3.5349 403.091C-3.5349 400.722 -3.1436 398.907 -2.36101 397.646C-1.57841 396.386 -0.446442 395.755 1.0349 395.755ZM-2.04657 403.091C-2.04657 404.782 -1.89285 406.105 -1.5854 407.061L3.06826 397.854C2.57913 397.203 1.90135 396.878 1.0349 396.878C0.0706311 396.878 -0.684015 397.39 -1.22904 398.415C-1.77406 399.427 -2.04657 400.985 -2.04657 403.091ZM1.0349 409.305C2.01315 409.305 2.77478 408.8 3.31981 407.788C3.86483 406.763 4.13734 405.197 4.13734 403.091C4.13734 401.304 3.96265 399.919 3.61328 398.935L-1.04037 408.225C-0.537276 408.945 0.154481 409.305 1.0349 409.305Z" fill="url(#paint5_linear_122_130)" fill-opacity="0.6"/>
<path d="M2.29265 432.89H5.37412V433.992H-2.61256V432.89H0.951054V421.21L-2.44486 423.226L-3.0318 422.291L1.16068 419.714H2.29265V432.89Z" fill="url(#paint6_linear_122_130)" fill-opacity="0.6"/>
<path d="M1.0349 443.257C2.53022 443.257 3.66219 443.888 4.43081 445.149C5.21341 446.396 5.60471 448.211 5.60471 450.594C5.60471 452.977 5.21341 454.798 4.43081 456.059C3.66219 457.32 2.53022 457.95 1.0349 457.95C-0.446442 457.95 -1.57841 457.32 -2.36101 456.059C-3.1436 454.798 -3.5349 452.977 -3.5349 450.594C-3.5349 448.224 -3.1436 446.409 -2.36101 445.149C-1.57841 443.888 -0.446442 443.257 1.0349 443.257ZM-2.04657 450.594C-2.04657 452.284 -1.89285 453.607 -1.5854 454.563L3.06826 445.356C2.57913 444.705 1.90135 444.38 1.0349 444.38C0.0706311 444.38 -0.684015 444.892 -1.22904 445.918C-1.77406 446.929 -2.04657 448.488 -2.04657 450.594ZM1.0349 456.807C2.01315 456.807 2.77478 456.302 3.31981 455.29C3.86483 454.265 4.13734 452.699 4.13734 450.594C4.13734 448.806 3.96265 447.421 3.61328 446.437L-1.04037 455.727C-0.537276 456.447 0.154481 456.807 1.0349 456.807Z" fill="url(#paint7_linear_122_130)" fill-opacity="0.6"/>
<path d="M1.0349 467.008C2.53022 467.008 3.66219 467.639 4.43081 468.9C5.21341 470.147 5.60471 471.962 5.60471 474.345C5.60471 476.728 5.21341 478.549 4.43081 479.81C3.66219 481.071 2.53022 481.701 1.0349 481.701C-0.446442 481.701 -1.57841 481.071 -2.36101 479.81C-3.1436 478.549 -3.5349 476.728 -3.5349 474.345C-3.5349 471.975 -3.1436 470.16 -2.36101 468.9C-1.57841 467.639 -0.446442 467.008 1.0349 467.008ZM-2.04657 474.345C-2.04657 476.035 -1.89285 477.358 -1.5854 478.314L3.06826 469.107C2.57913 468.456 1.90135 468.131 1.0349 468.131C0.0706311 468.131 -0.684015 468.643 -1.22904 469.669C-1.77406 470.68 -2.04657 472.239 -2.04657 474.345ZM1.0349 480.558C2.01315 480.558 2.77478 480.053 3.31981 479.041C3.86483 478.016 4.13734 476.451 4.13734 474.345C4.13734 472.557 3.96265 471.172 3.61328 470.188L-1.04037 479.478C-0.537276 480.198 0.154481 480.558 1.0349 480.558Z" fill="url(#paint8_linear_122_130)" fill-opacity="0.6"/>
<path d="M2.29265 504.143H5.37412V505.245H-2.61256V504.143H0.951054V492.464L-2.44486 494.48L-3.0318 493.544L1.16068 490.967H2.29265V504.143Z" fill="url(#paint9_linear_122_130)" fill-opacity="0.6"/>
<path d="M1.0349 514.511C2.53022 514.511 3.66219 515.141 4.43081 516.402C5.21341 517.649 5.60471 519.464 5.60471 521.847C5.60471 524.23 5.21341 526.052 4.43081 527.312C3.66219 528.573 2.53022 529.204 1.0349 529.204C-0.446442 529.204 -1.57841 528.573 -2.36101 527.312C-3.1436 526.052 -3.5349 524.23 -3.5349 521.847C-3.5349 519.478 -3.1436 517.663 -2.36101 516.402C-1.57841 515.141 -0.446442 514.511 1.0349 514.511ZM-2.04657 521.847C-2.04657 523.537 -1.89285 524.86 -1.5854 525.816L3.06826 516.61C2.57913 515.958 1.90135 515.633 1.0349 515.633C0.0706311 515.633 -0.684015 516.145 -1.22904 517.171C-1.77406 518.182 -2.04657 519.741 -2.04657 521.847ZM1.0349 528.061C2.01315 528.061 2.77478 527.555 3.31981 526.543C3.86483 525.518 4.13734 523.953 4.13734 521.847C4.13734 520.059 3.96265 518.674 3.61328 517.69L-1.04037 526.98C-0.537276 527.7 0.154481 528.061 1.0349 528.061Z" fill="url(#paint10_linear_122_130)" fill-opacity="0.6"/>
<path d="M2.29265 551.645H5.37412V552.747H-2.61256V551.645H0.951054V539.966L-2.44486 541.982L-3.0318 541.046L1.16068 538.469H2.29265V551.645Z" fill="url(#paint11_linear_122_130)" fill-opacity="0.6"/>
<path d="M2.29265 575.396H5.37412V576.498H-2.61256V575.396H0.951054V563.717L-2.44486 565.733L-3.0318 564.798L1.16068 562.221H2.29265V575.396Z" fill="url(#paint12_linear_122_130)" fill-opacity="0.6"/>
<path d="M39.9651 324.502C41.4604 324.502 42.5924 325.133 43.361 326.393C44.1436 327.64 44.5349 329.455 44.5349 331.838C44.5349 334.221 44.1436 336.043 43.361 337.304C42.5924 338.565 41.4604 339.195 39.9651 339.195C38.4838 339.195 37.3518 338.565 36.5692 337.304C35.7866 336.043 35.3953 334.221 35.3953 331.838C35.3953 329.469 35.7866 327.654 36.5692 326.393C37.3518 325.133 38.4838 324.502 39.9651 324.502ZM36.8836 331.838C36.8836 333.529 37.0374 334.852 37.3448 335.808L41.9985 326.601C41.5093 325.95 40.8315 325.624 39.9651 325.624C39.0008 325.624 38.2462 326.137 37.7012 327.162C37.1561 328.174 36.8836 329.732 36.8836 331.838ZM39.9651 338.052C40.9433 338.052 41.705 337.546 42.25 336.535C42.795 335.51 43.0675 333.944 43.0675 331.838C43.0675 330.051 42.8928 328.665 42.5435 327.682L37.8898 336.971C38.3929 337.692 39.0847 338.052 39.9651 338.052Z" fill="url(#paint13_linear_122_130)" fill-opacity="0.6"/>
<path d="M41.2228 361.637H44.3043V362.738H36.3176V361.637H39.8812V349.957L36.4853 351.973L35.8984 351.038L40.0909 348.461H41.2228V361.637Z" fill="url(#paint14_linear_122_130)" fill-opacity="0.6"/>
<path d="M39.9651 372.004C41.4604 372.004 42.5924 372.635 43.361 373.895C44.1436 375.142 44.5349 376.957 44.5349 379.34C44.5349 381.723 44.1436 383.545 43.361 384.806C42.5924 386.067 41.4604 386.697 39.9651 386.697C38.4838 386.697 37.3518 386.067 36.5692 384.806C35.7866 383.545 35.3953 381.723 35.3953 379.34C35.3953 376.971 35.7866 375.156 36.5692 373.895C37.3518 372.635 38.4838 372.004 39.9651 372.004ZM36.8836 379.34C36.8836 381.031 37.0374 382.354 37.3448 383.31L41.9985 374.103C41.5093 373.452 40.8315 373.126 39.9651 373.126C39.0008 373.126 38.2462 373.639 37.7012 374.664C37.1561 375.676 36.8836 377.234 36.8836 379.34ZM39.9651 385.554C40.9433 385.554 41.705 385.049 42.25 384.037C42.795 383.012 43.0675 381.446 43.0675 379.34C43.0675 377.553 42.8928 376.168 42.5435 375.184L37.8898 384.474C38.3929 385.194 39.0847 385.554 39.9651 385.554Z" fill="url(#paint15_linear_122_130)" fill-opacity="0.6"/>
<path d="M39.9651 395.755C41.4604 395.755 42.5924 396.386 43.361 397.646C44.1436 398.893 44.5349 400.708 44.5349 403.091C44.5349 405.474 44.1436 407.296 43.361 408.557C42.5924 409.818 41.4604 410.448 39.9651 410.448C38.4838 410.448 37.3518 409.818 36.5692 408.557C35.7866 407.296 35.3953 405.474 35.3953 403.091C35.3953 400.722 35.7866 398.907 36.5692 397.646C37.3518 396.386 38.4838 395.755 39.9651 395.755ZM36.8836 403.091C36.8836 404.782 37.0374 406.105 37.3448 407.061L41.9985 397.854C41.5093 397.203 40.8315 396.878 39.9651 396.878C39.0008 396.878 38.2462 397.39 37.7012 398.415C37.1561 399.427 36.8836 400.985 36.8836 403.091ZM39.9651 409.305C40.9433 409.305 41.705 408.8 42.25 407.788C42.795 406.763 43.0675 405.197 43.0675 403.091C43.0675 401.304 42.8928 399.919 42.5435 398.935L37.8898 408.225C38.3929 408.945 39.0847 409.305 39.9651 409.305Z" fill="url(#paint16_linear_122_130)" fill-opacity="0.6"/>
<path d="M41.2228 432.89H44.3043V433.992H36.3176V432.89H39.8812V421.21L36.4853 423.226L35.8984 422.291L40.0909 419.714H41.2228V432.89Z" fill="url(#paint17_linear_122_130)" fill-opacity="0.6"/>
<path d="M39.9651 443.257C41.4604 443.257 42.5924 443.888 43.361 445.149C44.1436 446.396 44.5349 448.211 44.5349 450.594C44.5349 452.977 44.1436 454.798 43.361 456.059C42.5924 457.32 41.4604 457.95 39.9651 457.95C38.4838 457.95 37.3518 457.32 36.5692 456.059C35.7866 454.798 35.3953 452.977 35.3953 450.594C35.3953 448.224 35.7866 446.409 36.5692 445.149C37.3518 443.888 38.4838 443.257 39.9651 443.257ZM36.8836 450.594C36.8836 452.284 37.0374 453.607 37.3448 454.563L41.9985 445.356C41.5093 444.705 40.8315 444.38 39.9651 444.38C39.0008 444.38 38.2462 444.892 37.7012 445.918C37.1561 446.929 36.8836 448.488 36.8836 450.594ZM39.9651 456.807C40.9433 456.807 41.705 456.302 42.25 455.29C42.795 454.265 43.0675 452.699 43.0675 450.594C43.0675 448.806 42.8928 447.421 42.5435 446.437L37.8898 455.727C38.3929 456.447 39.0847 456.807 39.9651 456.807Z" fill="url(#paint18_linear_122_130)" fill-opacity="0.6"/>
<path d="M41.2228 480.392H44.3043V481.494H36.3176V480.392H39.8812V468.713L36.4853 470.728L35.8984 469.793L40.0909 467.216H41.2228V480.392Z" fill="url(#paint19_linear_122_130)" fill-opacity="0.6"/>
<path d="M39.9651 490.76C41.4604 490.76 42.5924 491.39 43.361 492.651C44.1436 493.898 44.5349 495.713 44.5349 498.096C44.5349 500.479 44.1436 502.301 43.361 503.561C42.5924 504.822 41.4604 505.453 39.9651 505.453C38.4838 505.453 37.3518 504.822 36.5692 503.561C35.7866 502.301 35.3953 500.479 35.3953 498.096C35.3953 495.726 35.7866 493.911 36.5692 492.651C37.3518 491.39 38.4838 490.76 39.9651 490.76ZM36.8836 498.096C36.8836 499.786 37.0374 501.109 37.3448 502.065L41.9985 492.859C41.5093 492.207 40.8315 491.882 39.9651 491.882C39.0008 491.882 38.2462 492.394 37.7012 493.42C37.1561 494.431 36.8836 495.99 36.8836 498.096ZM39.9651 504.31C40.9433 504.31 41.705 503.804 42.25 502.792C42.795 501.767 43.0675 500.202 43.0675 498.096C43.0675 496.308 42.8928 494.923 42.5435 493.939L37.8898 503.229C38.3929 503.949 39.0847 504.31 39.9651 504.31Z" fill="url(#paint20_linear_122_130)" fill-opacity="0.6"/>
<path d="M39.9651 514.511C41.4604 514.511 42.5924 515.141 43.361 516.402C44.1436 517.649 44.5349 519.464 44.5349 521.847C44.5349 524.23 44.1436 526.052 43.361 527.312C42.5924 528.573 41.4604 529.204 39.9651 529.204C38.4838 529.204 37.3518 528.573 36.5692 527.312C35.7866 526.052 35.3953 524.23 35.3953 521.847C35.3953 519.478 35.7866 517.663 36.5692 516.402C37.3518 515.141 38.4838 514.511 39.9651 514.511ZM36.8836 521.847C36.8836 523.537 37.0374 524.86 37.3448 525.816L41.9985 516.61C41.5093 515.958 40.8315 515.633 39.9651 515.633C39.0008 515.633 38.2462 516.145 37.7012 517.171C37.1561 518.182 36.8836 519.741 36.8836 521.847ZM39.9651 528.061C40.9433 528.061 41.705 527.555 42.25 526.543C42.795 525.518 43.0675 523.953 43.0675 521.847C43.0675 520.059 42.8928 518.674 42.5435 517.69L37.8898 526.98C38.3929 527.7 39.0847 528.061 39.9651 528.061Z" fill="url(#paint21_linear_122_130)" fill-opacity="0.6"/>
<path d="M41.2228 551.645H44.3043V552.747H36.3176V551.645H39.8812V539.966L36.4853 541.982L35.8984 541.046L40.0909 538.469H41.2228V551.645Z" fill="url(#paint22_linear_122_130)" fill-opacity="0.6"/>
<path d="M39.9651 562.013C41.4604 562.013 42.5924 562.643 43.361 563.904C44.1436 565.151 44.5349 566.966 44.5349 569.349C44.5349 571.732 44.1436 573.554 43.361 574.815C42.5924 576.075 41.4604 576.706 39.9651 576.706C38.4838 576.706 37.3518 576.075 36.5692 574.815C35.7866 573.554 35.3953 571.732 35.3953 569.349C35.3953 566.98 35.7866 565.165 36.5692 563.904C37.3518 562.643 38.4838 562.013 39.9651 562.013ZM36.8836 569.349C36.8836 571.039 37.0374 572.362 37.3448 573.318L41.9985 564.112C41.5093 563.461 40.8315 563.135 39.9651 563.135C39.0008 563.135 38.2462 563.648 37.7012 564.673C37.1561 565.684 36.8836 567.243 36.8836 569.349ZM39.9651 575.563C40.9433 575.563 41.705 575.057 42.25 574.046C42.795 573.02 43.0675 571.455 43.0675 569.349C43.0675 567.562 42.8928 566.176 42.5435 565.192L37.8898 574.482C38.3929 575.202 39.0847 575.563 39.9651 575.563Z" fill="url(#paint23_linear_122_130)" fill-opacity="0.6"/>
<path d="M41.2228 599.148H44.3043V600.249H36.3176V599.148H39.8812V587.468L36.4853 589.484L35.8984 588.549L40.0909 585.972H41.2228V599.148Z" fill="url(#paint24_linear_122_130)" fill-opacity="0.6"/>
<path d="M41.2228 622.899H44.3043V624H36.3176V622.899H39.8812V611.219L36.4853 613.235L35.8984 612.3L40.0909 609.723H41.2228V622.899Z" fill="url(#paint25_linear_122_130)" fill-opacity="0.6"/>
<path d="M-18.4302 348.253C-16.9349 348.253 -15.8029 348.884 -15.0343 350.144C-14.2517 351.391 -13.8604 353.206 -13.8604 355.589C-13.8604 357.972 -14.2517 359.794 -15.0343 361.055C-15.8029 362.316 -16.9349 362.946 -18.4302 362.946C-19.9115 362.946 -21.0435 362.316 -21.8261 361.055C-22.6087 359.794 -23 357.972 -23 355.589C-23 353.22 -22.6087 351.405 -21.8261 350.144C-21.0435 348.884 -19.9115 348.253 -18.4302 348.253ZM-21.5117 355.589C-21.5117 357.28 -21.3579 358.603 -21.0505 359.559L-16.3968 350.352C-16.886 349.701 -17.5637 349.375 -18.4302 349.375C-19.3945 349.375 -20.1491 349.888 -20.6941 350.913C-21.2392 351.925 -21.5117 353.483 -21.5117 355.589ZM-18.4302 361.803C-17.4519 361.803 -16.6903 361.297 -16.1453 360.286C-15.6003 359.261 -15.3278 357.695 -15.3278 355.589C-15.3278 353.802 -15.5024 352.417 -15.8518 351.433L-20.5055 360.722C-20.0024 361.443 -19.3106 361.803 -18.4302 361.803Z" fill="url(#paint26_linear_122_130)" fill-opacity="0.6"/>
<path d="M-18.4302 372.004C-16.9349 372.004 -15.8029 372.635 -15.0343 373.895C-14.2517 375.142 -13.8604 376.957 -13.8604 379.34C-13.8604 381.723 -14.2517 383.545 -15.0343 384.806C-15.8029 386.067 -16.9349 386.697 -18.4302 386.697C-19.9115 386.697 -21.0435 386.067 -21.8261 384.806C-22.6087 383.545 -23 381.723 -23 379.34C-23 376.971 -22.6087 375.156 -21.8261 373.895C-21.0435 372.635 -19.9115 372.004 -18.4302 372.004ZM-21.5117 379.34C-21.5117 381.031 -21.3579 382.354 -21.0505 383.31L-16.3968 374.103C-16.886 373.452 -17.5637 373.126 -18.4302 373.126C-19.3945 373.126 -20.1491 373.639 -20.6941 374.664C-21.2392 375.676 -21.5117 377.234 -21.5117 379.34ZM-18.4302 385.554C-17.4519 385.554 -16.6903 385.049 -16.1453 384.037C-15.6003 383.012 -15.3278 381.446 -15.3278 379.34C-15.3278 377.553 -15.5024 376.168 -15.8518 375.184L-20.5055 384.474C-20.0024 385.194 -19.3106 385.554 -18.4302 385.554Z" fill="url(#paint27_linear_122_130)" fill-opacity="0.6"/>
<path d="M-17.1724 409.139H-14.091V410.24H-22.0777V409.139H-18.514V397.459L-21.91 399.475L-22.4969 398.54L-18.3044 395.963H-17.1724V409.139Z" fill="url(#paint28_linear_122_130)" fill-opacity="0.6"/>
<path d="M-18.4302 419.506C-16.9349 419.506 -15.8029 420.137 -15.0343 421.398C-14.2517 422.644 -13.8604 424.459 -13.8604 426.842C-13.8604 429.225 -14.2517 431.047 -15.0343 432.308C-15.8029 433.569 -16.9349 434.199 -18.4302 434.199C-19.9115 434.199 -21.0435 433.569 -21.8261 432.308C-22.6087 431.047 -23 429.225 -23 426.842C-23 424.473 -22.6087 422.658 -21.8261 421.398C-21.0435 420.137 -19.9115 419.506 -18.4302 419.506ZM-21.5117 426.842C-21.5117 428.533 -21.3579 429.856 -21.0505 430.812L-16.3968 421.605C-16.886 420.954 -17.5637 420.629 -18.4302 420.629C-19.3945 420.629 -20.1491 421.141 -20.6941 422.166C-21.2392 423.178 -21.5117 424.737 -21.5117 426.842ZM-18.4302 433.056C-17.4519 433.056 -16.6903 432.551 -16.1453 431.539C-15.6003 430.514 -15.3278 428.948 -15.3278 426.842C-15.3278 425.055 -15.5024 423.67 -15.8518 422.686L-20.5055 431.976C-20.0024 432.696 -19.3106 433.056 -18.4302 433.056Z" fill="url(#paint29_linear_122_130)" fill-opacity="0.6"/>
<path d="M-17.1724 456.641H-14.091V457.743H-22.0777V456.641H-18.514V444.962L-21.91 446.977L-22.4969 446.042L-18.3044 443.465H-17.1724V456.641Z" fill="url(#paint30_linear_122_130)" fill-opacity="0.6"/>
<path d="M-17.1724 480.392H-14.091V481.494H-22.0777V480.392H-18.514V468.713L-21.91 470.728L-22.4969 469.793L-18.3044 467.216H-17.1724V480.392Z" fill="url(#paint31_linear_122_130)" fill-opacity="0.6"/>
<path d="M21.7577 314.135H24.8392V315.236H16.8525V314.135H20.4162V302.455L17.0202 304.471L16.4333 303.536L20.6258 300.959H21.7577V314.135Z" fill="url(#paint32_linear_122_130)" fill-opacity="0.6"/>
<path d="M20.5 324.502C21.9953 324.502 23.1273 325.133 23.8959 326.393C24.6785 327.64 25.0698 329.455 25.0698 331.838C25.0698 334.221 24.6785 336.043 23.8959 337.304C23.1273 338.565 21.9953 339.195 20.5 339.195C19.0187 339.195 17.8867 338.565 17.1041 337.304C16.3215 336.043 15.9302 334.221 15.9302 331.838C15.9302 329.469 16.3215 327.654 17.1041 326.393C17.8867 325.133 19.0187 324.502 20.5 324.502ZM17.4185 331.838C17.4185 333.529 17.5723 334.852 17.8797 335.808L22.5334 326.601C22.0442 325.95 21.3664 325.624 20.5 325.624C19.5357 325.624 18.7811 326.137 18.2361 327.162C17.691 328.174 17.4185 329.732 17.4185 331.838ZM20.5 338.052C21.4782 338.052 22.2399 337.546 22.7849 336.535C23.3299 335.51 23.6024 333.944 23.6024 331.838C23.6024 330.051 23.4277 328.665 23.0784 327.682L18.4247 336.971C18.9278 337.692 19.6196 338.052 20.5 338.052Z" fill="url(#paint33_linear_122_130)" fill-opacity="0.6"/>
<path d="M21.7577 361.637H24.8392V362.738H16.8525V361.637H20.4162V349.957L17.0202 351.973L16.4333 351.038L20.6258 348.461H21.7577V361.637Z" fill="url(#paint34_linear_122_130)" fill-opacity="0.6"/>
<path d="M21.7577 385.388H24.8392V386.489H16.8525V385.388H20.4162V373.708L17.0202 375.724L16.4333 374.789L20.6258 372.212H21.7577V385.388Z" fill="url(#paint35_linear_122_130)" fill-opacity="0.6"/>
<path d="M20.5 395.755C21.9953 395.755 23.1273 396.386 23.8959 397.646C24.6785 398.893 25.0698 400.708 25.0698 403.091C25.0698 405.474 24.6785 407.296 23.8959 408.557C23.1273 409.818 21.9953 410.448 20.5 410.448C19.0187 410.448 17.8867 409.818 17.1041 408.557C16.3215 407.296 15.9302 405.474 15.9302 403.091C15.9302 400.722 16.3215 398.907 17.1041 397.646C17.8867 396.386 19.0187 395.755 20.5 395.755ZM17.4185 403.091C17.4185 404.782 17.5723 406.105 17.8797 407.061L22.5334 397.854C22.0442 397.203 21.3664 396.878 20.5 396.878C19.5357 396.878 18.7811 397.39 18.2361 398.415C17.691 399.427 17.4185 400.985 17.4185 403.091ZM20.5 409.305C21.4782 409.305 22.2399 408.8 22.7849 407.788C23.3299 406.763 23.6024 405.197 23.6024 403.091C23.6024 401.304 23.4277 399.919 23.0784 398.935L18.4247 408.225C18.9278 408.945 19.6196 409.305 20.5 409.305Z" fill="url(#paint36_linear_122_130)" fill-opacity="0.6"/>
<path d="M21.7577 432.89H24.8392V433.992H16.8525V432.89H20.4162V421.21L17.0202 423.226L16.4333 422.291L20.6258 419.714H21.7577V432.89Z" fill="url(#paint37_linear_122_130)" fill-opacity="0.6"/>
<path d="M21.7577 456.641H24.8392V457.743H16.8525V456.641H20.4162V444.962L17.0202 446.977L16.4333 446.042L20.6258 443.465H21.7577V456.641Z" fill="url(#paint38_linear_122_130)" fill-opacity="0.6"/>
<path d="M20.5 467.008C21.9953 467.008 23.1273 467.639 23.8959 468.9C24.6785 470.147 25.0698 471.962 25.0698 474.345C25.0698 476.728 24.6785 478.549 23.8959 479.81C23.1273 481.071 21.9953 481.701 20.5 481.701C19.0187 481.701 17.8867 481.071 17.1041 479.81C16.3215 478.549 15.9302 476.728 15.9302 474.345C15.9302 471.975 16.3215 470.16 17.1041 468.9C17.8867 467.639 19.0187 467.008 20.5 467.008ZM17.4185 474.345C17.4185 476.035 17.5723 477.358 17.8797 478.314L22.5334 469.107C22.0442 468.456 21.3664 468.131 20.5 468.131C19.5357 468.131 18.7811 468.643 18.2361 469.669C17.691 470.68 17.4185 472.239 17.4185 474.345ZM20.5 480.558C21.4782 480.558 22.2399 480.053 22.7849 479.041C23.3299 478.016 23.6024 476.451 23.6024 474.345C23.6024 472.557 23.4277 471.172 23.0784 470.188L18.4247 479.478C18.9278 480.198 19.6196 480.558 20.5 480.558Z" fill="url(#paint39_linear_122_130)" fill-opacity="0.6"/>
<path d="M21.7577 504.143H24.8392V505.245H16.8525V504.143H20.4162V492.464L17.0202 494.48L16.4333 493.544L20.6258 490.967H21.7577V504.143Z" fill="url(#paint40_linear_122_130)" fill-opacity="0.6"/>
<path d="M20.5 514.511C21.9953 514.511 23.1273 515.141 23.8959 516.402C24.6785 517.649 25.0698 519.464 25.0698 521.847C25.0698 524.23 24.6785 526.052 23.8959 527.312C23.1273 528.573 21.9953 529.204 20.5 529.204C19.0187 529.204 17.8867 528.573 17.1041 527.312C16.3215 526.052 15.9302 524.23 15.9302 521.847C15.9302 519.478 16.3215 517.663 17.1041 516.402C17.8867 515.141 19.0187 514.511 20.5 514.511ZM17.4185 521.847C17.4185 523.537 17.5723 524.86 17.8797 525.816L22.5334 516.61C22.0442 515.958 21.3664 515.633 20.5 515.633C19.5357 515.633 18.7811 516.145 18.2361 517.171C17.691 518.182 17.4185 519.741 17.4185 521.847ZM20.5 528.061C21.4782 528.061 22.2399 527.555 22.7849 526.543C23.3299 525.518 23.6024 523.953 23.6024 521.847C23.6024 520.059 23.4277 518.674 23.0784 517.69L18.4247 526.98C18.9278 527.7 19.6196 528.061 20.5 528.061Z" fill="url(#paint41_linear_122_130)" fill-opacity="0.6"/>
<path d="M59.4302 300.751C60.9255 300.751 62.0575 301.381 62.8261 302.642C63.6087 303.889 64 305.704 64 308.087C64 310.47 63.6087 312.292 62.8261 313.553C62.0575 314.814 60.9255 315.444 59.4302 315.444C57.9489 315.444 56.8169 314.814 56.0343 313.553C55.2517 312.292 54.8604 310.47 54.8604 308.087C54.8604 305.718 55.2517 303.903 56.0343 302.642C56.8169 301.381 57.9489 300.751 59.4302 300.751ZM56.3487 308.087C56.3487 309.777 56.5024 311.101 56.8099 312.057L61.4636 302.85C60.9744 302.199 60.2966 301.873 59.4302 301.873C58.4659 301.873 57.7113 302.386 57.1663 303.411C56.6212 304.423 56.3487 305.981 56.3487 308.087ZM59.4302 314.301C60.4084 314.301 61.1701 313.795 61.7151 312.784C62.2601 311.759 62.5326 310.193 62.5326 308.087C62.5326 306.3 62.3579 304.914 62.0086 303.931L57.3549 313.22C57.858 313.941 58.5498 314.301 59.4302 314.301Z" fill="url(#paint42_linear_122_130)" fill-opacity="0.6"/>
<path d="M60.6879 337.886H63.7694V338.987H55.7827V337.886H59.3463V326.206L55.9504 328.222L55.3635 327.287L59.556 324.71H60.6879V337.886Z" fill="url(#paint43_linear_122_130)" fill-opacity="0.6"/>
<path d="M60.6879 361.637H63.7694V362.738H55.7827V361.637H59.3463V349.957L55.9504 351.973L55.3635 351.038L59.556 348.461H60.6879V361.637Z" fill="url(#paint44_linear_122_130)" fill-opacity="0.6"/>
<path d="M59.4302 372.004C60.9255 372.004 62.0575 372.635 62.8261 373.895C63.6087 375.142 64 376.957 64 379.34C64 381.723 63.6087 383.545 62.8261 384.806C62.0575 386.067 60.9255 386.697 59.4302 386.697C57.9489 386.697 56.8169 386.067 56.0343 384.806C55.2517 383.545 54.8604 381.723 54.8604 379.34C54.8604 376.971 55.2517 375.156 56.0343 373.895C56.8169 372.635 57.9489 372.004 59.4302 372.004ZM56.3487 379.34C56.3487 381.031 56.5024 382.354 56.8099 383.31L61.4636 374.103C60.9744 373.452 60.2966 373.126 59.4302 373.126C58.4659 373.126 57.7113 373.639 57.1663 374.664C56.6212 375.676 56.3487 377.234 56.3487 379.34ZM59.4302 385.554C60.4084 385.554 61.1701 385.049 61.7151 384.037C62.2601 383.012 62.5326 381.446 62.5326 379.34C62.5326 377.553 62.3579 376.168 62.0086 375.184L57.3549 384.474C57.858 385.194 58.5498 385.554 59.4302 385.554Z" fill="url(#paint45_linear_122_130)" fill-opacity="0.6"/>
<path d="M59.4302 395.755C60.9255 395.755 62.0575 396.386 62.8261 397.646C63.6087 398.893 64 400.708 64 403.091C64 405.474 63.6087 407.296 62.8261 408.557C62.0575 409.818 60.9255 410.448 59.4302 410.448C57.9489 410.448 56.8169 409.818 56.0343 408.557C55.2517 407.296 54.8604 405.474 54.8604 403.091C54.8604 400.722 55.2517 398.907 56.0343 397.646C56.8169 396.386 57.9489 395.755 59.4302 395.755ZM56.3487 403.091C56.3487 404.782 56.5024 406.105 56.8099 407.061L61.4636 397.854C60.9744 397.203 60.2966 396.878 59.4302 396.878C58.4659 396.878 57.7113 397.39 57.1663 398.415C56.6212 399.427 56.3487 400.985 56.3487 403.091ZM59.4302 409.305C60.4084 409.305 61.1701 408.8 61.7151 407.788C62.2601 406.763 62.5326 405.197 62.5326 403.091C62.5326 401.304 62.3579 399.919 62.0086 398.935L57.3549 408.225C57.858 408.945 58.5498 409.305 59.4302 409.305Z" fill="url(#paint46_linear_122_130)" fill-opacity="0.6"/>
<g opacity="0.6">
<path d="M887.93 -23C889.356 -23 890.436 -22.395 891.17 -21.1851C891.916 -19.9885 892.29 -18.2468 892.29 -15.9599C892.29 -13.673 891.916 -11.9246 891.17 -10.7147C890.436 -9.50476 889.356 -8.8998 887.93 -8.8998C886.517 -8.8998 885.437 -9.50476 884.69 -10.7147C883.943 -11.9246 883.57 -13.673 883.57 -15.9599C883.57 -18.2335 883.943 -19.9752 884.69 -21.1851C885.437 -22.395 886.517 -23 887.93 -23ZM884.99 -15.9599C884.99 -14.3378 885.137 -13.068 885.43 -12.1506L889.87 -20.9857C889.403 -21.6106 888.756 -21.923 887.93 -21.923C887.01 -21.923 886.29 -21.4311 885.77 -20.4472C885.25 -19.4766 884.99 -17.9808 884.99 -15.9599ZM887.93 -9.99671C888.863 -9.99671 889.59 -10.482 890.11 -11.4526C890.63 -12.4365 890.89 -13.9389 890.89 -15.9599C890.89 -17.675 890.723 -19.0046 890.39 -19.9486L885.95 -11.0338C886.43 -10.3424 887.09 -9.99671 887.93 -9.99671Z" fill="url(#paint47_linear_122_130)"/>
<path d="M889.13 12.6365H892.07V13.6936H884.45V12.6365H887.85V1.42819L884.61 3.36273L884.05 2.46526L888.05 -0.00776117H889.13V12.6365Z" fill="url(#paint48_linear_122_130)"/>
<path d="M887.93 22.5856C889.356 22.5856 890.436 23.1906 891.17 24.4005C891.916 25.5971 892.29 27.3389 892.29 29.6257C892.29 31.9126 891.916 33.661 891.17 34.8709C890.436 36.0808 889.356 36.6858 887.93 36.6858C886.517 36.6858 885.437 36.0808 884.69 34.8709C883.943 33.661 883.57 31.9126 883.57 29.6257C883.57 27.3522 883.943 25.6104 884.69 24.4005C885.437 23.1906 886.517 22.5856 887.93 22.5856ZM884.99 29.6257C884.99 31.2478 885.137 32.5176 885.43 33.435L889.87 24.5999C889.403 23.975 888.756 23.6626 887.93 23.6626C887.01 23.6626 886.29 24.1545 885.77 25.1384C885.25 26.109 884.99 27.6048 884.99 29.6257ZM887.93 35.5889C888.863 35.5889 889.59 35.1036 890.11 34.133C890.63 33.1491 890.89 31.6467 890.89 29.6257C890.89 27.9106 890.723 26.581 890.39 25.637L885.95 34.5518C886.43 35.2432 887.09 35.5889 887.93 35.5889Z" fill="url(#paint49_linear_122_130)"/>
<path d="M889.13 58.2221H892.07V59.2792H884.45V58.2221H887.85V47.0138L884.61 48.9483L884.05 48.0509L888.05 45.5778H889.13V58.2221Z" fill="url(#paint50_linear_122_130)"/>
<path d="M889.13 81.015H892.07V82.072H884.45V81.015H887.85V69.8066L884.61 71.7411L884.05 70.8437L888.05 68.3706H889.13V81.015Z" fill="url(#paint51_linear_122_130)"/>
<path d="M887.93 90.964C889.356 90.964 890.436 91.569 891.17 92.7789C891.916 93.9755 892.29 95.7173 892.29 98.0041C892.29 100.291 891.916 102.039 891.17 103.249C890.436 104.459 889.356 105.064 887.93 105.064C886.517 105.064 885.437 104.459 884.69 103.249C883.943 102.039 883.57 100.291 883.57 98.0041C883.57 95.7306 883.943 93.9888 884.69 92.7789C885.437 91.569 886.517 90.964 887.93 90.964ZM884.99 98.0041C884.99 99.6262 885.137 100.896 885.43 101.813L889.87 92.9783C889.403 92.3534 888.756 92.041 887.93 92.041C887.01 92.041 886.29 92.5329 885.77 93.5168C885.25 94.4874 884.99 95.9832 884.99 98.0041ZM887.93 103.967C888.863 103.967 889.59 103.482 890.11 102.511C890.63 101.528 890.89 100.025 890.89 98.0041C890.89 96.289 890.723 94.9594 890.39 94.0154L885.95 102.93C886.43 103.622 887.09 103.967 887.93 103.967Z" fill="url(#paint52_linear_122_130)"/>
<path d="M889.13 126.601H892.07V127.658H884.45V126.601H887.85V115.392L884.61 117.327L884.05 116.429L888.05 113.956H889.13V126.601Z" fill="url(#paint53_linear_122_130)"/>
<path d="M887.93 136.55C889.356 136.55 890.436 137.155 891.17 138.365C891.916 139.561 892.29 141.303 892.29 143.59C892.29 145.877 891.916 147.625 891.17 148.835C890.436 150.045 889.356 150.65 887.93 150.65C886.517 150.65 885.437 150.045 884.69 148.835C883.943 147.625 883.57 145.877 883.57 143.59C883.57 141.316 883.943 139.574 884.69 138.365C885.437 137.155 886.517 136.55 887.93 136.55ZM884.99 143.59C884.99 145.212 885.137 146.482 885.43 147.399L889.87 138.564C889.403 137.939 888.756 137.627 887.93 137.627C887.01 137.627 886.29 138.119 885.77 139.102C885.25 140.073 884.99 141.569 884.99 143.59ZM887.93 149.553C888.863 149.553 889.59 149.068 890.11 148.097C890.63 147.113 890.89 145.611 890.89 143.59C890.89 141.875 890.723 140.545 890.39 139.601L885.95 148.516C886.43 149.207 887.09 149.553 887.93 149.553Z" fill="url(#paint54_linear_122_130)"/>
<path d="M887.93 159.342C889.356 159.342 890.436 159.947 891.17 161.157C891.916 162.354 892.29 164.096 892.29 166.383C892.29 168.669 891.916 170.418 891.17 171.628C890.436 172.838 889.356 173.443 887.93 173.443C886.517 173.443 885.437 172.838 884.69 171.628C883.943 170.418 883.57 168.669 883.57 166.383C883.57 164.109 883.943 162.367 884.69 161.157C885.437 159.947 886.517 159.342 887.93 159.342ZM884.99 166.383C884.99 168.005 885.137 169.274 885.43 170.192L889.87 161.357C889.403 160.732 888.756 160.419 887.93 160.419C887.01 160.419 886.29 160.911 885.77 161.895C885.25 162.866 884.99 164.362 884.99 166.383ZM887.93 172.346C888.863 172.346 889.59 171.86 890.11 170.89C890.63 169.906 890.89 168.404 890.89 166.383C890.89 164.667 890.723 163.338 890.39 162.394L885.95 171.309C886.43 172 887.09 172.346 887.93 172.346Z" fill="url(#paint55_linear_122_130)"/>
<path d="M889.13 194.979H892.07V196.036H884.45V194.979H887.85V183.771L884.61 185.705L884.05 184.808L888.05 182.335H889.13V194.979Z" fill="url(#paint56_linear_122_130)"/>
<path d="M887.93 204.928C889.356 204.928 890.436 205.533 891.17 206.743C891.916 207.94 892.29 209.681 892.29 211.968C892.29 214.255 891.916 216.003 891.17 217.213C890.436 218.423 889.356 219.028 887.93 219.028C886.517 219.028 885.437 218.423 884.69 217.213C883.943 216.003 883.57 214.255 883.57 211.968C883.57 209.695 883.943 207.953 884.69 206.743C885.437 205.533 886.517 204.928 887.93 204.928ZM884.99 211.968C884.99 213.59 885.137 214.86 885.43 215.777L889.87 206.942C889.403 206.317 888.756 206.005 887.93 206.005C887.01 206.005 886.29 206.497 885.77 207.481C885.25 208.451 884.99 209.947 884.99 211.968ZM887.93 217.931C888.863 217.931 889.59 217.446 890.11 216.475C890.63 215.492 890.89 213.989 890.89 211.968C890.89 210.253 890.723 208.923 890.39 207.979L885.95 216.894C886.43 217.586 887.09 217.931 887.93 217.931Z" fill="url(#paint57_linear_122_130)"/>
<path d="M889.13 240.565H892.07V241.622H884.45V240.565H887.85V229.356L884.61 231.291L884.05 230.393L888.05 227.92H889.13V240.565Z" fill="url(#paint58_linear_122_130)"/>
<path d="M889.13 263.357H892.07V264.414H884.45V263.357H887.85V252.149L884.61 254.084L884.05 253.186L888.05 250.713H889.13V263.357Z" fill="url(#paint59_linear_122_130)"/>
<path d="M925.07 22.5856C926.497 22.5856 927.577 23.1906 928.31 24.4005C929.057 25.5971 929.43 27.3389 929.43 29.6257C929.43 31.9126 929.057 33.661 928.31 34.8709C927.577 36.0808 926.497 36.6858 925.07 36.6858C923.657 36.6858 922.577 36.0808 921.83 34.8709C921.084 33.661 920.71 31.9126 920.71 29.6257C920.71 27.3522 921.084 25.6104 921.83 24.4005C922.577 23.1906 923.657 22.5856 925.07 22.5856ZM922.13 29.6257C922.13 31.2478 922.277 32.5176 922.57 33.435L927.01 24.5999C926.543 23.975 925.897 23.6626 925.07 23.6626C924.15 23.6626 923.43 24.1545 922.91 25.1384C922.39 26.109 922.13 27.6048 922.13 29.6257ZM925.07 35.5889C926.003 35.5889 926.73 35.1036 927.25 34.133C927.77 33.1491 928.03 31.6467 928.03 29.6257C928.03 27.9106 927.863 26.581 927.53 25.637L923.09 34.5518C923.57 35.2432 924.23 35.5889 925.07 35.5889Z" fill="url(#paint60_linear_122_130)"/>
<path d="M926.27 58.2221H929.21V59.2792H921.59V58.2221H924.99V47.0138L921.75 48.9483L921.19 48.0509L925.19 45.5778H926.27V58.2221Z" fill="url(#paint61_linear_122_130)"/>
<path d="M925.07 68.1712C926.497 68.1712 927.577 68.7762 928.31 69.9861C929.057 71.1827 929.43 72.9245 929.43 75.2113C929.43 77.4982 929.057 79.2466 928.31 80.4565C927.577 81.6664 926.497 82.2714 925.07 82.2714C923.657 82.2714 922.577 81.6664 921.83 80.4565C921.084 79.2466 920.71 77.4982 920.71 75.2113C920.71 72.9378 921.084 71.196 921.83 69.9861C922.577 68.7762 923.657 68.1712 925.07 68.1712ZM922.13 75.2113C922.13 76.8334 922.277 78.1032 922.57 79.0206L927.01 70.1855C926.543 69.5606 925.897 69.2482 925.07 69.2482C924.15 69.2482 923.43 69.7401 922.91 70.724C922.39 71.6946 922.13 73.1904 922.13 75.2113ZM925.07 81.1745C926.003 81.1745 926.73 80.6892 927.25 79.7186C927.77 78.7347 928.03 77.2323 928.03 75.2113C928.03 73.4962 927.863 72.1666 927.53 71.2226L923.09 80.1374C923.57 80.8288 924.23 81.1745 925.07 81.1745Z" fill="url(#paint62_linear_122_130)"/>
<path d="M925.07 90.964C926.497 90.964 927.577 91.569 928.31 92.7789C929.057 93.9755 929.43 95.7173 929.43 98.0041C929.43 100.291 929.057 102.039 928.31 103.249C927.577 104.459 926.497 105.064 925.07 105.064C923.657 105.064 922.577 104.459 921.83 103.249C921.084 102.039 920.71 100.291 920.71 98.0041C920.71 95.7306 921.084 93.9888 921.83 92.7789C922.577 91.569 923.657 90.964 925.07 90.964ZM922.13 98.0041C922.13 99.6262 922.277 100.896 922.57 101.813L927.01 92.9783C926.543 92.3534 925.897 92.041 925.07 92.041C924.15 92.041 923.43 92.5329 922.91 93.5168C922.39 94.4874 922.13 95.9832 922.13 98.0041ZM925.07 103.967C926.003 103.967 926.73 103.482 927.25 102.511C927.77 101.528 928.03 100.025 928.03 98.0041C928.03 96.289 927.863 94.9594 927.53 94.0154L923.09 102.93C923.57 103.622 924.23 103.967 925.07 103.967Z" fill="url(#paint63_linear_122_130)"/>
<path d="M926.27 126.601H929.21V127.658H921.59V126.601H924.99V115.392L921.75 117.327L921.19 116.429L925.19 113.956H926.27V126.601Z" fill="url(#paint64_linear_122_130)"/>
<path d="M925.07 136.55C926.497 136.55 927.577 137.155 928.31 138.365C929.057 139.561 929.43 141.303 929.43 143.59C929.43 145.877 929.057 147.625 928.31 148.835C927.577 150.045 926.497 150.65 925.07 150.65C923.657 150.65 922.577 150.045 921.83 148.835C921.084 147.625 920.71 145.877 920.71 143.59C920.71 141.316 921.084 139.574 921.83 138.365C922.577 137.155 923.657 136.55 925.07 136.55ZM922.13 143.59C922.13 145.212 922.277 146.482 922.57 147.399L927.01 138.564C926.543 137.939 925.897 137.627 925.07 137.627C924.15 137.627 923.43 138.119 922.91 139.102C922.39 140.073 922.13 141.569 922.13 143.59ZM925.07 149.553C926.003 149.553 926.73 149.068 927.25 148.097C927.77 147.113 928.03 145.611 928.03 143.59C928.03 141.875 927.863 140.545 927.53 139.601L923.09 148.516C923.57 149.207 924.23 149.553 925.07 149.553Z" fill="url(#paint65_linear_122_130)"/>
<path d="M926.27 172.186H929.21V173.243H921.59V172.186H924.99V160.978L921.75 162.912L921.19 162.015L925.19 159.542H926.27V172.186Z" fill="url(#paint66_linear_122_130)"/>
<path d="M925.07 182.135C926.497 182.135 927.577 182.74 928.31 183.95C929.057 185.147 929.43 186.888 929.43 189.175C929.43 191.462 929.057 193.211 928.31 194.421C927.577 195.63 926.497 196.235 925.07 196.235C923.657 196.235 922.577 195.63 921.83 194.421C921.084 193.211 920.71 191.462 920.71 189.175C920.71 186.902 921.084 185.16 921.83 183.95C922.577 182.74 923.657 182.135 925.07 182.135ZM922.13 189.175C922.13 190.797 922.277 192.067 922.57 192.985L927.01 184.15C926.543 183.525 925.897 183.212 925.07 183.212C924.15 183.212 923.43 183.704 922.91 184.688C922.39 185.659 922.13 187.154 922.13 189.175ZM925.07 195.139C926.003 195.139 926.73 194.653 927.25 193.683C927.77 192.699 928.03 191.196 928.03 189.175C928.03 187.46 927.863 186.131 927.53 185.187L923.09 194.101C923.57 194.793 924.23 195.139 925.07 195.139Z" fill="url(#paint67_linear_122_130)"/>
<path d="M925.07 204.928C926.497 204.928 927.577 205.533 928.31 206.743C929.057 207.94 929.43 209.681 929.43 211.968C929.43 214.255 929.057 216.003 928.31 217.213C927.577 218.423 926.497 219.028 925.07 219.028C923.657 219.028 922.577 218.423 921.83 217.213C921.084 216.003 920.71 214.255 920.71 211.968C920.71 209.695 921.084 207.953 921.83 206.743C922.577 205.533 923.657 204.928 925.07 204.928ZM922.13 211.968C922.13 213.59 922.277 214.86 922.57 215.777L927.01 206.942C926.543 206.317 925.897 206.005 925.07 206.005C924.15 206.005 923.43 206.497 922.91 207.481C922.39 208.451 922.13 209.947 922.13 211.968ZM925.07 217.931C926.003 217.931 926.73 217.446 927.25 216.475C927.77 215.492 928.03 213.989 928.03 211.968C928.03 210.253 927.863 208.923 927.53 207.979L923.09 216.894C923.57 217.586 924.23 217.931 925.07 217.931Z" fill="url(#paint68_linear_122_130)"/>
<path d="M926.27 240.565H929.21V241.622H921.59V240.565H924.99V229.356L921.75 231.291L921.19 230.393L925.19 227.92H926.27V240.565Z" fill="url(#paint69_linear_122_130)"/>
<path d="M925.07 250.514C926.497 250.514 927.577 251.119 928.31 252.329C929.057 253.525 929.43 255.267 929.43 257.554C929.43 259.841 929.057 261.589 928.31 262.799C927.577 264.009 926.497 264.614 925.07 264.614C923.657 264.614 922.577 264.009 921.83 262.799C921.084 261.589 920.71 259.841 920.71 257.554C920.71 255.28 921.084 253.538 921.83 252.329C922.577 251.119 923.657 250.514 925.07 250.514ZM922.13 257.554C922.13 259.176 922.277 260.446 922.57 261.363L927.01 252.528C926.543 251.903 925.897 251.591 925.07 251.591C924.15 251.591 923.43 252.083 922.91 253.066C922.39 254.037 922.13 255.533 922.13 257.554ZM925.07 263.517C926.003 263.517 926.73 263.032 927.25 262.061C927.77 261.077 928.03 259.575 928.03 257.554C928.03 255.839 927.863 254.509 927.53 253.565L923.09 262.48C923.57 263.171 924.23 263.517 925.07 263.517Z" fill="url(#paint70_linear_122_130)"/>
<path d="M926.27 286.15H929.21V287.207H921.59V286.15H924.99V274.942L921.75 276.876L921.19 275.979L925.19 273.506H926.27V286.15Z" fill="url(#paint71_linear_122_130)"/>
<path d="M926.27 308.943H929.21V310H921.59V308.943H924.99V297.735L921.75 299.669L921.19 298.772L925.19 296.299H926.27V308.943Z" fill="url(#paint72_linear_122_130)"/>
<path d="M869.36 45.3784C870.786 45.3784 871.866 45.9834 872.599 47.1933C873.346 48.3899 873.719 50.1317 873.719 52.4185C873.719 54.7054 873.346 56.4538 872.599 57.6637C871.866 58.8736 870.786 59.4786 869.36 59.4786C867.946 59.4786 866.867 58.8736 866.12 57.6637C865.373 56.4538 865 54.7054 865 52.4185C865 50.145 865.373 48.4032 866.12 47.1933C866.867 45.9834 867.946 45.3784 869.36 45.3784ZM866.42 52.4185C866.42 54.0406 866.567 55.3104 866.86 56.2278L871.3 47.3927C870.833 46.7678 870.186 46.4554 869.36 46.4554C868.44 46.4554 867.72 46.9473 867.2 47.9312C866.68 48.9018 866.42 50.3976 866.42 52.4185ZM869.36 58.3817C870.293 58.3817 871.02 57.8964 871.54 56.9258C872.06 55.9419 872.319 54.4395 872.319 52.4185C872.319 50.7034 872.153 49.3738 871.82 48.4298L867.38 57.3446C867.86 58.036 868.52 58.3817 869.36 58.3817Z" fill="url(#paint73_linear_122_130)"/>
<path d="M869.36 68.1712C870.786 68.1712 871.866 68.7762 872.599 69.9861C873.346 71.1827 873.719 72.9245 873.719 75.2113C873.719 77.4982 873.346 79.2466 872.599 80.4565C871.866 81.6664 870.786 82.2714 869.36 82.2714C867.946 82.2714 866.867 81.6664 866.12 80.4565C865.373 79.2466 865 77.4982 865 75.2113C865 72.9378 865.373 71.196 866.12 69.9861C866.867 68.7762 867.946 68.1712 869.36 68.1712ZM866.42 75.2113C866.42 76.8334 866.567 78.1032 866.86 79.0206L871.3 70.1855C870.833 69.5606 870.186 69.2482 869.36 69.2482C868.44 69.2482 867.72 69.7401 867.2 70.724C866.68 71.6946 866.42 73.1904 866.42 75.2113ZM869.36 81.1745C870.293 81.1745 871.02 80.6892 871.54 79.7186C872.06 78.7347 872.319 77.2323 872.319 75.2113C872.319 73.4962 872.153 72.1666 871.82 71.2226L867.38 80.1374C867.86 80.8288 868.52 81.1745 869.36 81.1745Z" fill="url(#paint74_linear_122_130)"/>
<path d="M870.56 103.808H873.499V104.865H865.88V103.808H869.28V92.5994L866.04 94.5339L865.48 93.6365L869.48 91.1635H870.56V103.808Z" fill="url(#paint75_linear_122_130)"/>
<path d="M869.36 113.757C870.786 113.757 871.866 114.362 872.599 115.572C873.346 116.768 873.719 118.51 873.719 120.797C873.719 123.084 873.346 124.832 872.599 126.042C871.866 127.252 870.786 127.857 869.36 127.857C867.946 127.857 866.867 127.252 866.12 126.042C865.373 124.832 865 123.084 865 120.797C865 118.523 865.373 116.782 866.12 115.572C866.867 114.362 867.946 113.757 869.36 113.757ZM866.42 120.797C866.42 122.419 866.567 123.689 866.86 124.606L871.3 115.771C870.833 115.146 870.186 114.834 869.36 114.834C868.44 114.834 867.72 115.326 867.2 116.31C866.68 117.28 866.42 118.776 866.42 120.797ZM869.36 126.76C870.293 126.76 871.02 126.275 871.54 125.304C872.06 124.32 872.319 122.818 872.319 120.797C872.319 119.082 872.153 117.752 871.82 116.808L867.38 125.723C867.86 126.414 868.52 126.76 869.36 126.76Z" fill="url(#paint76_linear_122_130)"/>
<path d="M870.56 149.393H873.499V150.45H865.88V149.393H869.28V138.185L866.04 140.12L865.48 139.222L869.48 136.749H870.56V149.393Z" fill="url(#paint77_linear_122_130)"/>
<path d="M870.56 172.186H873.499V173.243H865.88V172.186H869.28V160.978L866.04 162.912L865.48 162.015L869.48 159.542H870.56V172.186Z" fill="url(#paint78_linear_122_130)"/>
<path d="M907.7 12.6365H910.64V13.6936H903.02V12.6365H906.42V1.42819L903.18 3.36273L902.62 2.46526L906.62 -0.00776117H907.7V12.6365Z" fill="url(#paint79_linear_122_130)"/>
<path d="M906.5 22.5856C907.927 22.5856 909.006 23.1906 909.74 24.4005C910.486 25.5971 910.86 27.3389 910.86 29.6257C910.86 31.9126 910.486 33.661 909.74 34.8709C909.006 36.0808 907.927 36.6858 906.5 36.6858C905.087 36.6858 904.007 36.0808 903.26 34.8709C902.514 33.661 902.14 31.9126 902.14 29.6257C902.14 27.3522 902.514 25.6104 903.26 24.4005C904.007 23.1906 905.087 22.5856 906.5 22.5856ZM903.56 29.6257C903.56 31.2478 903.707 32.5176 904 33.435L908.44 24.5999C907.973 23.975 907.327 23.6626 906.5 23.6626C905.58 23.6626 904.86 24.1545 904.34 25.1384C903.82 26.109 903.56 27.6048 903.56 29.6257ZM906.5 35.5889C907.433 35.5889 908.16 35.1036 908.68 34.133C909.2 33.1491 909.46 31.6467 909.46 29.6257C909.46 27.9106 909.293 26.581 908.96 25.637L904.52 34.5518C905 35.2432 905.66 35.5889 906.5 35.5889Z" fill="url(#paint80_linear_122_130)"/>
<path d="M907.7 58.2221H910.64V59.2792H903.02V58.2221H906.42V47.0138L903.18 48.9483L902.62 48.0509L906.62 45.5778H907.7V58.2221Z" fill="url(#paint81_linear_122_130)"/>
<path d="M907.7 81.015H910.64V82.072H903.02V81.015H906.42V69.8066L903.18 71.7411L902.62 70.8437L906.62 68.3706H907.7V81.015Z" fill="url(#paint82_linear_122_130)"/>
<path d="M906.5 90.964C907.927 90.964 909.006 91.569 909.74 92.7789C910.486 93.9755 910.86 95.7173 910.86 98.0041C910.86 100.291 910.486 102.039 909.74 103.249C909.006 104.459 907.927 105.064 906.5 105.064C905.087 105.064 904.007 104.459 903.26 103.249C902.514 102.039 902.14 100.291 902.14 98.0041C902.14 95.7306 902.514 93.9888 903.26 92.7789C904.007 91.569 905.087 90.964 906.5 90.964ZM903.56 98.0041C903.56 99.6262 903.707 100.896 904 101.813L908.44 92.9783C907.973 92.3534 907.327 92.041 906.5 92.041C905.58 92.041 904.86 92.5329 904.34 93.5168C903.82 94.4874 903.56 95.9832 903.56 98.0041ZM906.5 103.967C907.433 103.967 908.16 103.482 908.68 102.511C909.2 101.528 909.46 100.025 909.46 98.0041C909.46 96.289 909.293 94.9594 908.96 94.0154L904.52 102.93C905 103.622 905.66 103.967 906.5 103.967Z" fill="url(#paint83_linear_122_130)"/>
<path d="M907.7 126.601H910.64V127.658H903.02V126.601H906.42V115.392L903.18 117.327L902.62 116.429L906.62 113.956H907.7V126.601Z" fill="url(#paint84_linear_122_130)"/>
<path d="M907.7 149.393H910.64V150.45H903.02V149.393H906.42V138.185L903.18 140.12L902.62 139.222L906.62 136.749H907.7V149.393Z" fill="url(#paint85_linear_122_130)"/>
<path d="M906.5 159.342C907.927 159.342 909.006 159.947 909.74 161.157C910.486 162.354 910.86 164.096 910.86 166.383C910.86 168.669 910.486 170.418 909.74 171.628C909.006 172.838 907.927 173.443 906.5 173.443C905.087 173.443 904.007 172.838 903.26 171.628C902.514 170.418 902.14 168.669 902.14 166.383C902.14 164.109 902.514 162.367 903.26 161.157C904.007 159.947 905.087 159.342 906.5 159.342ZM903.56 166.383C903.56 168.005 903.707 169.274 904 170.192L908.44 161.357C907.973 160.732 907.327 160.419 906.5 160.419C905.58 160.419 904.86 160.911 904.34 161.895C903.82 162.866 903.56 164.362 903.56 166.383ZM906.5 172.346C907.433 172.346 908.16 171.86 908.68 170.89C909.2 169.906 909.46 168.404 909.46 166.383C909.46 164.667 909.293 163.338 908.96 162.394L904.52 171.309C905 172 905.66 172.346 906.5 172.346Z" fill="url(#paint86_linear_122_130)"/>
<path d="M907.7 194.979H910.64V196.036H903.02V194.979H906.42V183.771L903.18 185.705L902.62 184.808L906.62 182.335H907.7V194.979Z" fill="url(#paint87_linear_122_130)"/>
<path d="M906.5 204.928C907.927 204.928 909.006 205.533 909.74 206.743C910.486 207.94 910.86 209.681 910.86 211.968C910.86 214.255 910.486 216.003 909.74 217.213C909.006 218.423 907.927 219.028 906.5 219.028C905.087 219.028 904.007 218.423 903.26 217.213C902.514 216.003 902.14 214.255 902.14 211.968C902.14 209.695 902.514 207.953 903.26 206.743C904.007 205.533 905.087 204.928 906.5 204.928ZM903.56 211.968C903.56 213.59 903.707 214.86 904 215.777L908.44 206.942C907.973 206.317 907.327 206.005 906.5 206.005C905.58 206.005 904.86 206.497 904.34 207.481C903.82 208.451 903.56 209.947 903.56 211.968ZM906.5 217.931C907.433 217.931 908.16 217.446 908.68 216.475C909.2 215.492 909.46 213.989 909.46 211.968C909.46 210.253 909.293 208.923 908.96 207.979L904.52 216.894C905 217.586 905.66 217.931 906.5 217.931Z" fill="url(#paint88_linear_122_130)"/>
<path d="M943.64 -0.207197C945.067 -0.207197 946.147 0.397762 946.88 1.60768C947.627 2.8043 948 4.54605 948 6.83293C948 9.11981 947.627 10.8682 946.88 12.0781C946.147 13.288 945.067 13.893 943.64 13.893C942.227 13.893 941.147 13.288 940.401 12.0781C939.654 10.8682 939.281 9.11981 939.281 6.83293C939.281 4.55935 939.654 2.8176 940.401 1.60768C941.147 0.397762 942.227 -0.207197 943.64 -0.207197ZM940.7 6.83293C940.7 8.45502 940.847 9.72477 941.14 10.6422L945.58 1.80712C945.114 1.18221 944.467 0.869764 943.64 0.869764C942.72 0.869764 942 1.36171 941.48 2.3456C940.96 3.31619 940.7 4.81197 940.7 6.83293ZM943.64 12.7961C944.574 12.7961 945.3 12.3108 945.82 11.3402C946.34 10.3563 946.6 8.85389 946.6 6.83293C946.6 5.11777 946.433 3.78819 946.1 2.84419L941.66 11.759C942.14 12.4504 942.8 12.7961 943.64 12.7961Z" fill="url(#paint89_linear_122_130)"/>
<path d="M944.84 35.4293H947.78V36.4864H940.161V35.4293H943.56V24.221L940.321 26.1555L939.761 25.2581L943.76 22.785H944.84V35.4293Z" fill="url(#paint90_linear_122_130)"/>
<path d="M944.84 58.2221H947.78V59.2792H940.161V58.2221H943.56V47.0138L940.321 48.9483L939.761 48.0509L943.76 45.5778H944.84V58.2221Z" fill="url(#paint91_linear_122_130)"/>
<path d="M943.64 68.1712C945.067 68.1712 946.147 68.7762 946.88 69.9861C947.627 71.1827 948 72.9245 948 75.2113C948 77.4982 947.627 79.2466 946.88 80.4565C946.147 81.6664 945.067 82.2714 943.64 82.2714C942.227 82.2714 941.147 81.6664 940.401 80.4565C939.654 79.2466 939.281 77.4982 939.281 75.2113C939.281 72.9378 939.654 71.196 940.401 69.9861C941.147 68.7762 942.227 68.1712 943.64 68.1712ZM940.7 75.2113C940.7 76.8334 940.847 78.1032 941.14 79.0206L945.58 70.1855C945.114 69.5606 944.467 69.2482 943.64 69.2482C942.72 69.2482 942 69.7401 941.48 70.724C940.96 71.6946 940.7 73.1904 940.7 75.2113ZM943.64 81.1745C944.574 81.1745 945.3 80.6892 945.82 79.7186C946.34 78.7347 946.6 77.2323 946.6 75.2113C946.6 73.4962 946.433 72.1666 946.1 71.2226L941.66 80.1374C942.14 80.8288 942.8 81.1745 943.64 81.1745Z" fill="url(#paint92_linear_122_130)"/>
<path d="M943.64 90.964C945.067 90.964 946.147 91.569 946.88 92.7789C947.627 93.9755 948 95.7173 948 98.0041C948 100.291 947.627 102.039 946.88 103.249C946.147 104.459 945.067 105.064 943.64 105.064C942.227 105.064 941.147 104.459 940.401 103.249C939.654 102.039 939.281 100.291 939.281 98.0041C939.281 95.7306 939.654 93.9888 940.401 92.7789C941.147 91.569 942.227 90.964 943.64 90.964ZM940.7 98.0041C940.7 99.6262 940.847 100.896 941.14 101.813L945.58 92.9783C945.114 92.3534 944.467 92.041 943.64 92.041C942.72 92.041 942 92.5329 941.48 93.5168C940.96 94.4874 940.7 95.9832 940.7 98.0041ZM943.64 103.967C944.574 103.967 945.3 103.482 945.82 102.511C946.34 101.528 946.6 100.025 946.6 98.0041C946.6 96.289 946.433 94.9594 946.1 94.0154L941.66 102.93C942.14 103.622 942.8 103.967 943.64 103.967Z" fill="url(#paint93_linear_122_130)"/>
</g>
</g>
<defs>
<filter id="filter0_f_122_130" x="-590.19" y="-709.19" width="2141.38" height="1500.38" filterUnits="userSpaceOnUse" color-interpolation-filters="sRGB">
<feFlood flood-opacity="0" result="BackgroundImageFix"/>
<feBlend mode="normal" in="SourceGraphic" in2="BackgroundImageFix" result="shape"/>
<feGaussianBlur stdDeviation="200.095" result="effect1_foregroundBlur_122_130"/>
</filter>
<linearGradient id="paint0_linear_122_130" x1="20.5" y1="277" x2="20.5" y2="588.381" gradientUnits="userSpaceOnUse">
<stop stop-color="#F7DD43"/>
<stop offset="1" stop-color="#F7DD43" stop-opacity="0"/>
</linearGradient>
<linearGradient id="paint1_linear_122_130" x1="20.5" y1="277" x2="20.5" y2="588.381" gradientUnits="userSpaceOnUse">
<stop stop-color="#F7DD43"/>
<stop offset="1" stop-color="#F7DD43" stop-opacity="0"/>
</linearGradient>
<linearGradient id="paint2_linear_122_130" x1="20.5" y1="277" x2="20.5" y2="588.381" gradientUnits="userSpaceOnUse">
<stop stop-color="#F7DD43"/>
<stop offset="1" stop-color="#F7DD43" stop-opacity="0"/>
</linearGradient>
<linearGradient id="paint3_linear_122_130" x1="20.5" y1="277" x2="20.5" y2="588.381" gradientUnits="userSpaceOnUse">
<stop stop-color="#F7DD43"/>
<stop offset="1" stop-color="#F7DD43" stop-opacity="0"/>
</linearGradient>
<linearGradient id="paint4_linear_122_130" x1="20.5" y1="277" x2="20.5" y2="588.381" gradientUnits="userSpaceOnUse">
<stop stop-color="#F7DD43"/>
<stop offset="1" stop-color="#F7DD43" stop-opacity="0"/>
</linearGradient>
<linearGradient id="paint5_linear_122_130" x1="20.5" y1="277" x2="20.5" y2="588.381" gradientUnits="userSpaceOnUse">
<stop stop-color="#F7DD43"/>
<stop offset="1" stop-color="#F7DD43" stop-opacity="0"/>
</linearGradient>
<linearGradient id="paint6_linear_122_130" x1="20.5" y1="277" x2="20.5" y2="588.381" gradientUnits="userSpaceOnUse">
<stop stop-color="#F7DD43"/>
<stop offset="1" stop-color="#F7DD43" stop-opacity="0"/>
</linearGradient>
<linearGradient id="paint7_linear_122_130" x1="20.5" y1="277" x2="20.5" y2="588.381" gradientUnits="userSpaceOnUse">
<stop stop-color="#F7DD43"/>
<stop offset="1" stop-color="#F7DD43" stop-opacity="0"/>
</linearGradient>
<linearGradient id="paint8_linear_122_130" x1="20.5" y1="277" x2="20.5" y2="588.381" gradientUnits="userSpaceOnUse">
<stop stop-color="#F7DD43"/>
<stop offset="1" stop-color="#F7DD43" stop-opacity="0"/>
</linearGradient>
<linearGradient id="paint9_linear_122_130" x1="20.5" y1="277" x2="20.5" y2="588.381" gradientUnits="userSpaceOnUse">
<stop stop-color="#F7DD43"/>
<stop offset="1" stop-color="#F7DD43" stop-opacity="0"/>
</linearGradient>
<linearGradient id="paint10_linear_122_130" x1="20.5" y1="277" x2="20.5" y2="588.381" gradientUnits="userSpaceOnUse">
<stop stop-color="#F7DD43"/>
<stop offset="1" stop-color="#F7DD43" stop-opacity="0"/>
</linearGradient>
<linearGradient id="paint11_linear_122_130" x1="20.5" y1="277" x2="20.5" y2="588.381" gradientUnits="userSpaceOnUse">
<stop stop-color="#F7DD43"/>
<stop offset="1" stop-color="#F7DD43" stop-opacity="0"/>
</linearGradient>
<linearGradient id="paint12_linear_122_130" x1="20.5" y1="277" x2="20.5" y2="588.381" gradientUnits="userSpaceOnUse">
<stop stop-color="#F7DD43"/>
<stop offset="1" stop-color="#F7DD43" stop-opacity="0"/>
</linearGradient>
<linearGradient id="paint13_linear_122_130" x1="20.5" y1="277" x2="20.5" y2="588.381" gradientUnits="userSpaceOnUse">
<stop stop-color="#F7DD43"/>
<stop offset="1" stop-color="#F7DD43" stop-opacity="0"/>
</linearGradient>
<linearGradient id="paint14_linear_122_130" x1="20.5" y1="277" x2="20.5" y2="588.381" gradientUnits="userSpaceOnUse">
<stop stop-color="#F7DD43"/>
<stop offset="1" stop-color="#F7DD43" stop-opacity="0"/>
</linearGradient>
<linearGradient id="paint15_linear_122_130" x1="20.5" y1="277" x2="20.5" y2="588.381" gradientUnits="userSpaceOnUse">
<stop stop-color="#F7DD43"/>
<stop offset="1" stop-color="#F7DD43" stop-opacity="0"/>
</linearGradient>
<linearGradient id="paint16_linear_122_130" x1="20.5" y1="277" x2="20.5" y2="588.381" gradientUnits="userSpaceOnUse">
<stop stop-color="#F7DD43"/>
<stop offset="1" stop-color="#F7DD43" stop-opacity="0"/>
</linearGradient>
<linearGradient id="paint17_linear_122_130" x1="20.5" y1="277" x2="20.5" y2="588.381" gradientUnits="userSpaceOnUse">
<stop stop-color="#F7DD43"/>
<stop offset="1" stop-color="#F7DD43" stop-opacity="0"/>
</linearGradient>
<linearGradient id="paint18_linear_122_130" x1="20.5" y1="277" x2="20.5" y2="588.381" gradientUnits="userSpaceOnUse">
<stop stop-color="#F7DD43"/>
<stop offset="1" stop-color="#F7DD43" stop-opacity="0"/>
</linearGradient>
<linearGradient id="paint19_linear_122_130" x1="20.5" y1="277" x2="20.5" y2="588.381" gradientUnits="userSpaceOnUse">
<stop stop-color="#F7DD43"/>
<stop offset="1" stop-color="#F7DD43" stop-opacity="0"/>
</linearGradient>
<linearGradient id="paint20_linear_122_130" x1="20.5" y1="277" x2="20.5" y2="588.381" gradientUnits="userSpaceOnUse">
<stop stop-color="#F7DD43"/>
<stop offset="1" stop-color="#F7DD43" stop-opacity="0"/>
</linearGradient>
<linearGradient id="paint21_linear_122_130" x1="20.5" y1="277" x2="20.5" y2="588.381" gradientUnits="userSpaceOnUse">
<stop stop-color="#F7DD43"/>
<stop offset="1" stop-color="#F7DD43" stop-opacity="0"/>
</linearGradient>
<linearGradient id="paint22_linear_122_130" x1="20.5" y1="277" x2="20.5" y2="588.381" gradientUnits="userSpaceOnUse">
<stop stop-color="#F7DD43"/>
<stop offset="1" stop-color="#F7DD43" stop-opacity="0"/>
</linearGradient>
<linearGradient id="paint23_linear_122_130" x1="20.5" y1="277" x2="20.5" y2="588.381" gradientUnits="userSpaceOnUse">
<stop stop-color="#F7DD43"/>
<stop offset="1" stop-color="#F7DD43" stop-opacity="0"/>
</linearGradient>
<linearGradient id="paint24_linear_122_130" x1="20.5" y1="277" x2="20.5" y2="588.381" gradientUnits="userSpaceOnUse">
<stop stop-color="#F7DD43"/>
<stop offset="1" stop-color="#F7DD43" stop-opacity="0"/>
</linearGradient>
<linearGradient id="paint25_linear_122_130" x1="20.5" y1="277" x2="20.5" y2="588.381" gradientUnits="userSpaceOnUse">
<stop stop-color="#F7DD43"/>
<stop offset="1" stop-color="#F7DD43" stop-opacity="0"/>
</linearGradient>
<linearGradient id="paint26_linear_122_130" x1="20.5" y1="277" x2="20.5" y2="588.381" gradientUnits="userSpaceOnUse">
<stop stop-color="#F7DD43"/>
<stop offset="1" stop-color="#F7DD43" stop-opacity="0"/>
</linearGradient>
<linearGradient id="paint27_linear_122_130" x1="20.5" y1="277" x2="20.5" y2="588.381" gradientUnits="userSpaceOnUse">
<stop stop-color="#F7DD43"/>
<stop offset="1" stop-color="#F7DD43" stop-opacity="0"/>
</linearGradient>
<linearGradient id="paint28_linear_122_130" x1="20.5" y1="277" x2="20.5" y2="588.381" gradientUnits="userSpaceOnUse">
<stop stop-color="#F7DD43"/>
<stop offset="1" stop-color="#F7DD43" stop-opacity="0"/>
</linearGradient>
<linearGradient id="paint29_linear_122_130" x1="20.5" y1="277" x2="20.5" y2="588.381" gradientUnits="userSpaceOnUse">
<stop stop-color="#F7DD43"/>
<stop offset="1" stop-color="#F7DD43" stop-opacity="0"/>
</linearGradient>
<linearGradient id="paint30_linear_122_130" x1="20.5" y1="277" x2="20.5" y2="588.381" gradientUnits="userSpaceOnUse">
<stop stop-color="#F7DD43"/>
<stop offset="1" stop-color="#F7DD43" stop-opacity="0"/>
</linearGradient>
<linearGradient id="paint31_linear_122_130" x1="20.5" y1="277" x2="20.5" y2="588.381" gradientUnits="userSpaceOnUse">
<stop stop-color="#F7DD43"/>
<stop offset="1" stop-color="#F7DD43" stop-opacity="0"/>
</linearGradient>
<linearGradient id="paint32_linear_122_130" x1="20.5" y1="277" x2="20.5" y2="588.381" gradientUnits="userSpaceOnUse">
<stop stop-color="#F7DD43"/>
<stop offset="1" stop-color="#F7DD43" stop-opacity="0"/>
</linearGradient>
<linearGradient id="paint33_linear_122_130" x1="20.5" y1="277" x2="20.5" y2="588.381" gradientUnits="userSpaceOnUse">
<stop stop-color="#F7DD43"/>
<stop offset="1" stop-color="#F7DD43" stop-opacity="0"/>
</linearGradient>
<linearGradient id="paint34_linear_122_130" x1="20.5" y1="277" x2="20.5" y2="588.381" gradientUnits="userSpaceOnUse">
<stop stop-color="#F7DD43"/>
<stop offset="1" stop-color="#F7DD43" stop-opacity="0"/>
</linearGradient>
<linearGradient id="paint35_linear_122_130" x1="20.5" y1="277" x2="20.5" y2="588.381" gradientUnits="userSpaceOnUse">
<stop stop-color="#F7DD43"/>
<stop offset="1" stop-color="#F7DD43" stop-opacity="0"/>
</linearGradient>
<linearGradient id="paint36_linear_122_130" x1="20.5" y1="277" x2="20.5" y2="588.381" gradientUnits="userSpaceOnUse">
<stop stop-color="#F7DD43"/>
<stop offset="1" stop-color="#F7DD43" stop-opacity="0"/>
</linearGradient>
<linearGradient id="paint37_linear_122_130" x1="20.5" y1="277" x2="20.5" y2="588.381" gradientUnits="userSpaceOnUse">
<stop stop-color="#F7DD43"/>
<stop offset="1" stop-color="#F7DD43" stop-opacity="0"/>
</linearGradient>
<linearGradient id="paint38_linear_122_130" x1="20.5" y1="277" x2="20.5" y2="588.381" gradientUnits="userSpaceOnUse">
<stop stop-color="#F7DD43"/>
<stop offset="1" stop-color="#F7DD43" stop-opacity="0"/>
</linearGradient>
<linearGradient id="paint39_linear_122_130" x1="20.5" y1="277" x2="20.5" y2="588.381" gradientUnits="userSpaceOnUse">
<stop stop-color="#F7DD43"/>
<stop offset="1" stop-color="#F7DD43" stop-opacity="0"/>
</linearGradient>
<linearGradient id="paint40_linear_122_130" x1="20.5" y1="277" x2="20.5" y2="588.381" gradientUnits="userSpaceOnUse">
<stop stop-color="#F7DD43"/>
<stop offset="1" stop-color="#F7DD43" stop-opacity="0"/>
</linearGradient>
<linearGradient id="paint41_linear_122_130" x1="20.5" y1="277" x2="20.5" y2="588.381" gradientUnits="userSpaceOnUse">
<stop stop-color="#F7DD43"/>
<stop offset="1" stop-color="#F7DD43" stop-opacity="0"/>
</linearGradient>
<linearGradient id="paint42_linear_122_130" x1="20.5" y1="277" x2="20.5" y2="588.381" gradientUnits="userSpaceOnUse">
<stop stop-color="#F7DD43"/>
<stop offset="1" stop-color="#F7DD43" stop-opacity="0"/>
</linearGradient>
<linearGradient id="paint43_linear_122_130" x1="20.5" y1="277" x2="20.5" y2="588.381" gradientUnits="userSpaceOnUse">
<stop stop-color="#F7DD43"/>
<stop offset="1" stop-color="#F7DD43" stop-opacity="0"/>
</linearGradient>
<linearGradient id="paint44_linear_122_130" x1="20.5" y1="277" x2="20.5" y2="588.381" gradientUnits="userSpaceOnUse">
<stop stop-color="#F7DD43"/>
<stop offset="1" stop-color="#F7DD43" stop-opacity="0"/>
</linearGradient>
<linearGradient id="paint45_linear_122_130" x1="20.5" y1="277" x2="20.5" y2="588.381" gradientUnits="userSpaceOnUse">
<stop stop-color="#F7DD43"/>
<stop offset="1" stop-color="#F7DD43" stop-opacity="0"/>
</linearGradient>
<linearGradient id="paint46_linear_122_130" x1="20.5" y1="277" x2="20.5" y2="588.381" gradientUnits="userSpaceOnUse">
<stop stop-color="#F7DD43"/>
<stop offset="1" stop-color="#F7DD43" stop-opacity="0"/>
</linearGradient>
<linearGradient id="paint47_linear_122_130" x1="906.5" y1="-23" x2="906.5" y2="275.818" gradientUnits="userSpaceOnUse">
<stop stop-color="#F7DD43"/>
<stop offset="1" stop-color="#F7DD43" stop-opacity="0"/>
</linearGradient>
<linearGradient id="paint48_linear_122_130" x1="906.5" y1="-23" x2="906.5" y2="275.818" gradientUnits="userSpaceOnUse">
<stop stop-color="#F7DD43"/>
<stop offset="1" stop-color="#F7DD43" stop-opacity="0"/>
</linearGradient>
<linearGradient id="paint49_linear_122_130" x1="906.5" y1="-23" x2="906.5" y2="275.818" gradientUnits="userSpaceOnUse">
<stop stop-color="#F7DD43"/>
<stop offset="1" stop-color="#F7DD43" stop-opacity="0"/>
</linearGradient>
<linearGradient id="paint50_linear_122_130" x1="906.5" y1="-23" x2="906.5" y2="275.818" gradientUnits="userSpaceOnUse">
<stop stop-color="#F7DD43"/>
<stop offset="1" stop-color="#F7DD43" stop-opacity="0"/>
</linearGradient>
<linearGradient id="paint51_linear_122_130" x1="906.5" y1="-23" x2="906.5" y2="275.818" gradientUnits="userSpaceOnUse">
<stop stop-color="#F7DD43"/>
<stop offset="1" stop-color="#F7DD43" stop-opacity="0"/>
</linearGradient>
<linearGradient id="paint52_linear_122_130" x1="906.5" y1="-23" x2="906.5" y2="275.818" gradientUnits="userSpaceOnUse">
<stop stop-color="#F7DD43"/>
<stop offset="1" stop-color="#F7DD43" stop-opacity="0"/>
</linearGradient>
<linearGradient id="paint53_linear_122_130" x1="906.5" y1="-23" x2="906.5" y2="275.818" gradientUnits="userSpaceOnUse">
<stop stop-color="#F7DD43"/>
<stop offset="1" stop-color="#F7DD43" stop-opacity="0"/>
</linearGradient>
<linearGradient id="paint54_linear_122_130" x1="906.5" y1="-23" x2="906.5" y2="275.818" gradientUnits="userSpaceOnUse">
<stop stop-color="#F7DD43"/>
<stop offset="1" stop-color="#F7DD43" stop-opacity="0"/>
</linearGradient>
<linearGradient id="paint55_linear_122_130" x1="906.5" y1="-23" x2="906.5" y2="275.818" gradientUnits="userSpaceOnUse">
<stop stop-color="#F7DD43"/>
<stop offset="1" stop-color="#F7DD43" stop-opacity="0"/>
</linearGradient>
<linearGradient id="paint56_linear_122_130" x1="906.5" y1="-23" x2="906.5" y2="275.818" gradientUnits="userSpaceOnUse">
<stop stop-color="#F7DD43"/>
<stop offset="1" stop-color="#F7DD43" stop-opacity="0"/>
</linearGradient>
<linearGradient id="paint57_linear_122_130" x1="906.5" y1="-23" x2="906.5" y2="275.818" gradientUnits="userSpaceOnUse">
<stop stop-color="#F7DD43"/>
<stop offset="1" stop-color="#F7DD43" stop-opacity="0"/>
</linearGradient>
<linearGradient id="paint58_linear_122_130" x1="906.5" y1="-23" x2="906.5" y2="275.818" gradientUnits="userSpaceOnUse">
<stop stop-color="#F7DD43"/>
<stop offset="1" stop-color="#F7DD43" stop-opacity="0"/>
</linearGradient>
<linearGradient id="paint59_linear_122_130" x1="906.5" y1="-23" x2="906.5" y2="275.818" gradientUnits="userSpaceOnUse">
<stop stop-color="#F7DD43"/>
<stop offset="1" stop-color="#F7DD43" stop-opacity="0"/>
</linearGradient>
<linearGradient id="paint60_linear_122_130" x1="906.5" y1="-23" x2="906.5" y2="275.818" gradientUnits="userSpaceOnUse">
<stop stop-color="#F7DD43"/>
<stop offset="1" stop-color="#F7DD43" stop-opacity="0"/>
</linearGradient>
<linearGradient id="paint61_linear_122_130" x1="906.5" y1="-23" x2="906.5" y2="275.818" gradientUnits="userSpaceOnUse">
<stop stop-color="#F7DD43"/>
<stop offset="1" stop-color="#F7DD43" stop-opacity="0"/>
</linearGradient>
<linearGradient id="paint62_linear_122_130" x1="906.5" y1="-23" x2="906.5" y2="275.818" gradientUnits="userSpaceOnUse">
<stop stop-color="#F7DD43"/>
<stop offset="1" stop-color="#F7DD43" stop-opacity="0"/>
</linearGradient>
<linearGradient id="paint63_linear_122_130" x1="906.5" y1="-23" x2="906.5" y2="275.818" gradientUnits="userSpaceOnUse">
<stop stop-color="#F7DD43"/>
<stop offset="1" stop-color="#F7DD43" stop-opacity="0"/>
</linearGradient>
<linearGradient id="paint64_linear_122_130" x1="906.5" y1="-23" x2="906.5" y2="275.818" gradientUnits="userSpaceOnUse">
<stop stop-color="#F7DD43"/>
<stop offset="1" stop-color="#F7DD43" stop-opacity="0"/>
</linearGradient>
<linearGradient id="paint65_linear_122_130" x1="906.5" y1="-23" x2="906.5" y2="275.818" gradientUnits="userSpaceOnUse">
<stop stop-color="#F7DD43"/>
<stop offset="1" stop-color="#F7DD43" stop-opacity="0"/>
</linearGradient>
<linearGradient id="paint66_linear_122_130" x1="906.5" y1="-23" x2="906.5" y2="275.818" gradientUnits="userSpaceOnUse">
<stop stop-color="#F7DD43"/>
<stop offset="1" stop-color="#F7DD43" stop-opacity="0"/>
</linearGradient>
<linearGradient id="paint67_linear_122_130" x1="906.5" y1="-23" x2="906.5" y2="275.818" gradientUnits="userSpaceOnUse">
<stop stop-color="#F7DD43"/>
<stop offset="1" stop-color="#F7DD43" stop-opacity="0"/>
</linearGradient>
<linearGradient id="paint68_linear_122_130" x1="906.5" y1="-23" x2="906.5" y2="275.818" gradientUnits="userSpaceOnUse">
<stop stop-color="#F7DD43"/>
<stop offset="1" stop-color="#F7DD43" stop-opacity="0"/>
</linearGradient>
<linearGradient id="paint69_linear_122_130" x1="906.5" y1="-23" x2="906.5" y2="275.818" gradientUnits="userSpaceOnUse">
<stop stop-color="#F7DD43"/>
<stop offset="1" stop-color="#F7DD43" stop-opacity="0"/>
</linearGradient>
<linearGradient id="paint70_linear_122_130" x1="906.5" y1="-23" x2="906.5" y2="275.818" gradientUnits="userSpaceOnUse">
<stop stop-color="#F7DD43"/>
<stop offset="1" stop-color="#F7DD43" stop-opacity="0"/>
</linearGradient>
<linearGradient id="paint71_linear_122_130" x1="906.5" y1="-23" x2="906.5" y2="275.818" gradientUnits="userSpaceOnUse">
<stop stop-color="#F7DD43"/>
<stop offset="1" stop-color="#F7DD43" stop-opacity="0"/>
</linearGradient>
<linearGradient id="paint72_linear_122_130" x1="906.5" y1="-23" x2="906.5" y2="275.818" gradientUnits="userSpaceOnUse">
<stop stop-color="#F7DD43"/>
<stop offset="1" stop-color="#F7DD43" stop-opacity="0"/>
</linearGradient>
<linearGradient id="paint73_linear_122_130" x1="906.5" y1="-23" x2="906.5" y2="275.818" gradientUnits="userSpaceOnUse">
<stop stop-color="#F7DD43"/>
<stop offset="1" stop-color="#F7DD43" stop-opacity="0"/>
</linearGradient>
<linearGradient id="paint74_linear_122_130" x1="906.5" y1="-23" x2="906.5" y2="275.818" gradientUnits="userSpaceOnUse">
<stop stop-color="#F7DD43"/>
<stop offset="1" stop-color="#F7DD43" stop-opacity="0"/>
</linearGradient>
<linearGradient id="paint75_linear_122_130" x1="906.5" y1="-23" x2="906.5" y2="275.818" gradientUnits="userSpaceOnUse">
<stop stop-color="#F7DD43"/>
<stop offset="1" stop-color="#F7DD43" stop-opacity="0"/>
</linearGradient>
<linearGradient id="paint76_linear_122_130" x1="906.5" y1="-23" x2="906.5" y2="275.818" gradientUnits="userSpaceOnUse">
<stop stop-color="#F7DD43"/>
<stop offset="1" stop-color="#F7DD43" stop-opacity="0"/>
</linearGradient>
<linearGradient id="paint77_linear_122_130" x1="906.5" y1="-23" x2="906.5" y2="275.818" gradientUnits="userSpaceOnUse">
<stop stop-color="#F7DD43"/>
<stop offset="1" stop-color="#F7DD43" stop-opacity="0"/>
</linearGradient>
<linearGradient id="paint78_linear_122_130" x1="906.5" y1="-23" x2="906.5" y2="275.818" gradientUnits="userSpaceOnUse">
<stop stop-color="#F7DD43"/>
<stop offset="1" stop-color="#F7DD43" stop-opacity="0"/>
</linearGradient>
<linearGradient id="paint79_linear_122_130" x1="906.5" y1="-23" x2="906.5" y2="275.818" gradientUnits="userSpaceOnUse">
<stop stop-color="#F7DD43"/>
<stop offset="1" stop-color="#F7DD43" stop-opacity="0"/>
</linearGradient>
<linearGradient id="paint80_linear_122_130" x1="906.5" y1="-23" x2="906.5" y2="275.818" gradientUnits="userSpaceOnUse">
<stop stop-color="#F7DD43"/>
<stop offset="1" stop-color="#F7DD43" stop-opacity="0"/>
</linearGradient>
<linearGradient id="paint81_linear_122_130" x1="906.5" y1="-23" x2="906.5" y2="275.818" gradientUnits="userSpaceOnUse">
<stop stop-color="#F7DD43"/>
<stop offset="1" stop-color="#F7DD43" stop-opacity="0"/>
</linearGradient>
<linearGradient id="paint82_linear_122_130" x1="906.5" y1="-23" x2="906.5" y2="275.818" gradientUnits="userSpaceOnUse">
<stop stop-color="#F7DD43"/>
<stop offset="1" stop-color="#F7DD43" stop-opacity="0"/>
</linearGradient>
<linearGradient id="paint83_linear_122_130" x1="906.5" y1="-23" x2="906.5" y2="275.818" gradientUnits="userSpaceOnUse">
<stop stop-color="#F7DD43"/>
<stop offset="1" stop-color="#F7DD43" stop-opacity="0"/>
</linearGradient>
<linearGradient id="paint84_linear_122_130" x1="906.5" y1="-23" x2="906.5" y2="275.818" gradientUnits="userSpaceOnUse">
<stop stop-color="#F7DD43"/>
<stop offset="1" stop-color="#F7DD43" stop-opacity="0"/>
</linearGradient>
<linearGradient id="paint85_linear_122_130" x1="906.5" y1="-23" x2="906.5" y2="275.818" gradientUnits="userSpaceOnUse">
<stop stop-color="#F7DD43"/>
<stop offset="1" stop-color="#F7DD43" stop-opacity="0"/>
</linearGradient>
<linearGradient id="paint86_linear_122_130" x1="906.5" y1="-23" x2="906.5" y2="275.818" gradientUnits="userSpaceOnUse">
<stop stop-color="#F7DD43"/>
<stop offset="1" stop-color="#F7DD43" stop-opacity="0"/>
</linearGradient>
<linearGradient id="paint87_linear_122_130" x1="906.5" y1="-23" x2="906.5" y2="275.818" gradientUnits="userSpaceOnUse">
<stop stop-color="#F7DD43"/>
<stop offset="1" stop-color="#F7DD43" stop-opacity="0"/>
</linearGradient>
<linearGradient id="paint88_linear_122_130" x1="906.5" y1="-23" x2="906.5" y2="275.818" gradientUnits="userSpaceOnUse">
<stop stop-color="#F7DD43"/>
<stop offset="1" stop-color="#F7DD43" stop-opacity="0"/>
</linearGradient>
<linearGradient id="paint89_linear_122_130" x1="906.5" y1="-23" x2="906.5" y2="275.818" gradientUnits="userSpaceOnUse">
<stop stop-color="#F7DD43"/>
<stop offset="1" stop-color="#F7DD43" stop-opacity="0"/>
</linearGradient>
<linearGradient id="paint90_linear_122_130" x1="906.5" y1="-23" x2="906.5" y2="275.818" gradientUnits="userSpaceOnUse">
<stop stop-color="#F7DD43"/>
<stop offset="1" stop-color="#F7DD43" stop-opacity="0"/>
</linearGradient>
<linearGradient id="paint91_linear_122_130" x1="906.5" y1="-23" x2="906.5" y2="275.818" gradientUnits="userSpaceOnUse">
<stop stop-color="#F7DD43"/>
<stop offset="1" stop-color="#F7DD43" stop-opacity="0"/>
</linearGradient>
<linearGradient id="paint92_linear_122_130" x1="906.5" y1="-23" x2="906.5" y2="275.818" gradientUnits="userSpaceOnUse">
<stop stop-color="#F7DD43"/>
<stop offset="1" stop-color="#F7DD43" stop-opacity="0"/>
</linearGradient>
<linearGradient id="paint93_linear_122_130" x1="906.5" y1="-23" x2="906.5" y2="275.818" gradientUnits="userSpaceOnUse">
<stop stop-color="#F7DD43"/>
<stop offset="1" stop-color="#F7DD43" stop-opacity="0"/>
</linearGradient>
<clipPath id="clip0_122_130">
<rect width="1024" height="753" fill="white"/>
</clipPath>
</defs>
</svg>
